<?xml version="1.0" standalone="no"?>
<!DOCTYPE svg PUBLIC "-//W3C//DTD SVG 20010904//EN"
 "http://www.w3.org/TR/2001/REC-SVG-20010904/DTD/svg10.dtd">
<svg version="1.0" xmlns="http://www.w3.org/2000/svg"
 width="200.000000pt" height="50.000000pt" viewBox="0 0 200.000000 50.000000"
 preserveAspectRatio="xMidYMid meet">

<g transform="translate(0.000000,50.000000) scale(0.100000,-0.100000)"
fill="#FFA500" stroke="none">
<path d="M45 345 c-14 -13 -25 -35 -25 -48 0 -34 36 -77 65 -77 20 0 26 8 35
40 14 52 26 51 34 -3 l6 -42 45 3 c77 7 111 77 60 127 -27 28 -61 32 -92 10
-18 -13 -22 -13 -33 0 -19 23 -68 18 -95 -10z"/>
<path d="M1920 335 c0 -8 9 -15 20 -15 11 0 20 7 20 15 0 8 -9 15 -20 15 -11
0 -20 -7 -20 -15z"/>
<path d="M352 253 c3 -74 6 -88 21 -91 14 -3 17 4 17 37 0 40 1 41 34 41 33 0
35 -2 38 -37 2 -26 8 -38 18 -38 12 0 16 18 18 88 3 82 2 87 -18 87 -16 0 -20
-6 -20 -35 0 -33 -2 -35 -35 -35 -33 0 -35 2 -35 35 0 29 -4 35 -20 35 -20 0
-21 -5 -18 -87z"/>
<path d="M1166 321 c-44 -48 -24 -143 34 -156 37 -8 70 2 70 21 0 12 -7 14
-29 9 -35 -7 -61 15 -61 51 0 44 17 64 55 64 24 0 35 5 35 15 0 23 -82 20
-104 -4z"/>
<path d="M1760 325 c0 -9 9 -15 25 -15 23 0 24 -3 27 -72 2 -57 6 -73 18 -73
12 0 16 16 18 73 3 69 4 72 27 72 16 0 25 6 25 15 0 12 -14 15 -70 15 -56 0
-70 -3 -70 -15z"/>
<path d="M551 287 c-6 -8 -14 -28 -17 -45 -5 -25 -1 -36 19 -56 30 -30 53 -33
85 -10 28 20 31 83 4 107 -22 20 -75 22 -91 4z m69 -26 c0 -5 2 -15 5 -23 3
-7 -1 -22 -9 -33 -12 -16 -16 -17 -30 -6 -16 14 -22 52 -9 64 10 10 43 8 43
-2z"/>
<path d="M692 231 c2 -52 6 -66 20 -69 14 -3 17 6 20 50 3 45 6 53 23 53 17 0
20 -8 23 -53 3 -44 6 -53 20 -50 13 2 18 16 20 56 3 43 6 52 22 52 16 0 19 -9
22 -52 2 -39 7 -53 18 -53 18 0 27 99 10 120 -7 9 -40 12 -106 12 l-95 0 3
-66z"/>
<path d="M947 282 c-19 -21 -22 -64 -7 -92 12 -23 62 -35 89 -20 32 16 25 27
-15 26 -22 -1 -39 4 -41 12 -3 8 8 12 36 12 37 0 41 3 41 24 0 51 -69 76 -103
38z m63 -17 c11 -13 8 -15 -14 -15 -25 0 -33 10 -19 23 10 11 19 8 33 -8z"/>
<path d="M1315 290 c-6 -10 14 -23 31 -19 19 3 34 -1 34 -11 0 -5 -10 -10 -23
-10 -34 0 -59 -22 -55 -50 5 -33 32 -48 59 -32 17 11 23 11 29 2 4 -7 13 -9
20 -5 17 10 8 114 -11 126 -19 12 -76 11 -84 -1z m65 -74 c0 -19 -17 -29 -37
-22 -12 5 -13 9 -3 21 16 19 40 19 40 1z"/>
<path d="M1452 233 c2 -54 6 -68 20 -71 14 -3 17 6 20 45 2 39 7 50 26 58 24
10 30 35 9 35 -7 0 -18 -5 -24 -11 -8 -8 -13 -8 -17 0 -4 6 -14 11 -22 11 -12
0 -14 -13 -12 -67z"/>
<path d="M1577 282 c-19 -21 -22 -64 -7 -92 12 -23 62 -35 89 -20 32 16 25 27
-15 26 -22 -1 -39 4 -41 12 -3 8 8 12 36 12 37 0 41 3 41 24 0 51 -69 76 -103
38z m63 -17 c11 -13 8 -15 -14 -15 -25 0 -33 10 -19 23 10 11 19 8 33 -8z"/>
<path d="M1922 233 c2 -53 6 -68 18 -68 12 0 16 15 18 68 3 62 1 67 -18 67
-19 0 -21 -5 -18 -67z"/>
<path d="M131 228 c-1 -12 -9 -18 -26 -18 -34 0 -32 -10 13 -53 l38 -37 37 38
c20 21 37 41 37 45 0 16 -40 6 -50 -13 -16 -29 -25 -25 -37 18 -6 20 -11 29
-12 20z"/>
</g>
</svg>
